<mxfile host="Electron" agent="Mozilla/5.0 (Windows NT 10.0; Win64; x64) AppleWebKit/537.36 (KHTML, like Gecko) draw.io/28.0.6 Chrome/138.0.7204.100 Electron/37.2.3 Safari/537.36" version="28.0.6">
  <diagram name="Page-1" id="hVtKSUavdNRMtCmYifDw">
    <mxGraphModel dx="2916" dy="1249" grid="1" gridSize="10" guides="1" tooltips="1" connect="1" arrows="1" fold="1" page="1" pageScale="1" pageWidth="850" pageHeight="1100" math="0" shadow="0">
      <root>
        <mxCell id="0" />
        <mxCell id="1" parent="0" />
        <mxCell id="yJ9eC3fKXJN5n1Vp4XFk-1" value="&lt;b&gt;Sales Data Mart&lt;/b&gt; &lt;font style=&quot;font-size: 30px;&quot;&gt;(Star Schema)&lt;/font&gt;" style="text;html=1;align=center;verticalAlign=middle;whiteSpace=wrap;rounded=0;fontSize=40;" vertex="1" parent="1">
          <mxGeometry x="-40" y="230" width="510" height="30" as="geometry" />
        </mxCell>
        <mxCell id="yJ9eC3fKXJN5n1Vp4XFk-2" value="&lt;font style=&quot;color: rgb(0, 0, 0);&quot;&gt;gold.dim_customers&lt;/font&gt;" style="shape=table;startSize=30;container=1;collapsible=1;childLayout=tableLayout;fixedRows=1;rowLines=0;fontStyle=1;align=center;resizeLast=1;html=1;rounded=1;fillColor=#fff2cc;strokeColor=#d6b656;fontSize=16;" vertex="1" parent="1">
          <mxGeometry x="-40" y="350" width="280" height="381" as="geometry" />
        </mxCell>
        <mxCell id="yJ9eC3fKXJN5n1Vp4XFk-3" value="" style="shape=tableRow;horizontal=0;startSize=0;swimlaneHead=0;swimlaneBody=0;fillColor=none;collapsible=0;dropTarget=0;points=[[0,0.5],[1,0.5]];portConstraint=eastwest;top=0;left=0;right=0;bottom=1;fontSize=16;" vertex="1" parent="yJ9eC3fKXJN5n1Vp4XFk-2">
          <mxGeometry y="30" width="280" height="39" as="geometry" />
        </mxCell>
        <mxCell id="yJ9eC3fKXJN5n1Vp4XFk-4" value="PK" style="shape=partialRectangle;connectable=0;fillColor=none;top=0;left=0;bottom=0;right=0;fontStyle=1;overflow=hidden;whiteSpace=wrap;html=1;fontSize=16;" vertex="1" parent="yJ9eC3fKXJN5n1Vp4XFk-3">
          <mxGeometry width="30" height="39" as="geometry">
            <mxRectangle width="30" height="39" as="alternateBounds" />
          </mxGeometry>
        </mxCell>
        <mxCell id="yJ9eC3fKXJN5n1Vp4XFk-5" value="customer_key" style="shape=partialRectangle;connectable=0;fillColor=none;top=0;left=0;bottom=0;right=0;align=left;spacingLeft=6;fontStyle=5;overflow=hidden;whiteSpace=wrap;html=1;fontSize=16;" vertex="1" parent="yJ9eC3fKXJN5n1Vp4XFk-3">
          <mxGeometry x="30" width="250" height="39" as="geometry">
            <mxRectangle width="250" height="39" as="alternateBounds" />
          </mxGeometry>
        </mxCell>
        <mxCell id="yJ9eC3fKXJN5n1Vp4XFk-6" value="" style="shape=tableRow;horizontal=0;startSize=0;swimlaneHead=0;swimlaneBody=0;fillColor=none;collapsible=0;dropTarget=0;points=[[0,0.5],[1,0.5]];portConstraint=eastwest;top=0;left=0;right=0;bottom=0;fontSize=16;" vertex="1" parent="yJ9eC3fKXJN5n1Vp4XFk-2">
          <mxGeometry y="69" width="280" height="39" as="geometry" />
        </mxCell>
        <mxCell id="yJ9eC3fKXJN5n1Vp4XFk-7" value="" style="shape=partialRectangle;connectable=0;fillColor=none;top=0;left=0;bottom=0;right=0;editable=1;overflow=hidden;whiteSpace=wrap;html=1;fontSize=16;" vertex="1" parent="yJ9eC3fKXJN5n1Vp4XFk-6">
          <mxGeometry width="30" height="39" as="geometry">
            <mxRectangle width="30" height="39" as="alternateBounds" />
          </mxGeometry>
        </mxCell>
        <mxCell id="yJ9eC3fKXJN5n1Vp4XFk-8" value="&lt;span style=&quot;&quot;&gt;customer_id&lt;/span&gt;" style="shape=partialRectangle;connectable=0;fillColor=none;top=0;left=0;bottom=0;right=0;align=left;spacingLeft=6;overflow=hidden;whiteSpace=wrap;html=1;fontSize=16;fontStyle=0" vertex="1" parent="yJ9eC3fKXJN5n1Vp4XFk-6">
          <mxGeometry x="30" width="250" height="39" as="geometry">
            <mxRectangle width="250" height="39" as="alternateBounds" />
          </mxGeometry>
        </mxCell>
        <mxCell id="yJ9eC3fKXJN5n1Vp4XFk-9" value="" style="shape=tableRow;horizontal=0;startSize=0;swimlaneHead=0;swimlaneBody=0;fillColor=none;collapsible=0;dropTarget=0;points=[[0,0.5],[1,0.5]];portConstraint=eastwest;top=0;left=0;right=0;bottom=0;fontSize=16;" vertex="1" parent="yJ9eC3fKXJN5n1Vp4XFk-2">
          <mxGeometry y="108" width="280" height="39" as="geometry" />
        </mxCell>
        <mxCell id="yJ9eC3fKXJN5n1Vp4XFk-10" value="" style="shape=partialRectangle;connectable=0;fillColor=none;top=0;left=0;bottom=0;right=0;editable=1;overflow=hidden;whiteSpace=wrap;html=1;fontSize=16;" vertex="1" parent="yJ9eC3fKXJN5n1Vp4XFk-9">
          <mxGeometry width="30" height="39" as="geometry">
            <mxRectangle width="30" height="39" as="alternateBounds" />
          </mxGeometry>
        </mxCell>
        <mxCell id="yJ9eC3fKXJN5n1Vp4XFk-11" value="&lt;span style=&quot;&quot;&gt;customer_number&lt;/span&gt;" style="shape=partialRectangle;connectable=0;fillColor=none;top=0;left=0;bottom=0;right=0;align=left;spacingLeft=6;overflow=hidden;whiteSpace=wrap;html=1;fontSize=16;fontStyle=0" vertex="1" parent="yJ9eC3fKXJN5n1Vp4XFk-9">
          <mxGeometry x="30" width="250" height="39" as="geometry">
            <mxRectangle width="250" height="39" as="alternateBounds" />
          </mxGeometry>
        </mxCell>
        <mxCell id="yJ9eC3fKXJN5n1Vp4XFk-12" value="" style="shape=tableRow;horizontal=0;startSize=0;swimlaneHead=0;swimlaneBody=0;fillColor=none;collapsible=0;dropTarget=0;points=[[0,0.5],[1,0.5]];portConstraint=eastwest;top=0;left=0;right=0;bottom=0;fontSize=16;" vertex="1" parent="yJ9eC3fKXJN5n1Vp4XFk-2">
          <mxGeometry y="147" width="280" height="39" as="geometry" />
        </mxCell>
        <mxCell id="yJ9eC3fKXJN5n1Vp4XFk-13" value="" style="shape=partialRectangle;connectable=0;fillColor=none;top=0;left=0;bottom=0;right=0;editable=1;overflow=hidden;whiteSpace=wrap;html=1;fontSize=16;" vertex="1" parent="yJ9eC3fKXJN5n1Vp4XFk-12">
          <mxGeometry width="30" height="39" as="geometry">
            <mxRectangle width="30" height="39" as="alternateBounds" />
          </mxGeometry>
        </mxCell>
        <mxCell id="yJ9eC3fKXJN5n1Vp4XFk-14" value="first_name" style="shape=partialRectangle;connectable=0;fillColor=none;top=0;left=0;bottom=0;right=0;align=left;spacingLeft=6;overflow=hidden;whiteSpace=wrap;html=1;fontSize=16;fontStyle=0" vertex="1" parent="yJ9eC3fKXJN5n1Vp4XFk-12">
          <mxGeometry x="30" width="250" height="39" as="geometry">
            <mxRectangle width="250" height="39" as="alternateBounds" />
          </mxGeometry>
        </mxCell>
        <mxCell id="yJ9eC3fKXJN5n1Vp4XFk-15" value="" style="shape=tableRow;horizontal=0;startSize=0;swimlaneHead=0;swimlaneBody=0;fillColor=none;collapsible=0;dropTarget=0;points=[[0,0.5],[1,0.5]];portConstraint=eastwest;top=0;left=0;right=0;bottom=0;fontSize=16;" vertex="1" parent="yJ9eC3fKXJN5n1Vp4XFk-2">
          <mxGeometry y="186" width="280" height="44" as="geometry" />
        </mxCell>
        <mxCell id="yJ9eC3fKXJN5n1Vp4XFk-16" value="" style="shape=partialRectangle;connectable=0;fillColor=none;top=0;left=0;bottom=0;right=0;editable=1;overflow=hidden;whiteSpace=wrap;html=1;fontSize=16;" vertex="1" parent="yJ9eC3fKXJN5n1Vp4XFk-15">
          <mxGeometry width="30" height="44" as="geometry">
            <mxRectangle width="30" height="44" as="alternateBounds" />
          </mxGeometry>
        </mxCell>
        <mxCell id="yJ9eC3fKXJN5n1Vp4XFk-17" value="last_name" style="shape=partialRectangle;connectable=0;fillColor=none;top=0;left=0;bottom=0;right=0;align=left;spacingLeft=6;overflow=hidden;whiteSpace=wrap;html=1;fontSize=16;fontStyle=0" vertex="1" parent="yJ9eC3fKXJN5n1Vp4XFk-15">
          <mxGeometry x="30" width="250" height="44" as="geometry">
            <mxRectangle width="250" height="44" as="alternateBounds" />
          </mxGeometry>
        </mxCell>
        <mxCell id="yJ9eC3fKXJN5n1Vp4XFk-18" value="" style="shape=tableRow;horizontal=0;startSize=0;swimlaneHead=0;swimlaneBody=0;fillColor=none;collapsible=0;dropTarget=0;points=[[0,0.5],[1,0.5]];portConstraint=eastwest;top=0;left=0;right=0;bottom=0;fontSize=16;" vertex="1" parent="yJ9eC3fKXJN5n1Vp4XFk-2">
          <mxGeometry y="230" width="280" height="34" as="geometry" />
        </mxCell>
        <mxCell id="yJ9eC3fKXJN5n1Vp4XFk-19" value="" style="shape=partialRectangle;connectable=0;fillColor=none;top=0;left=0;bottom=0;right=0;editable=1;overflow=hidden;whiteSpace=wrap;html=1;fontSize=16;" vertex="1" parent="yJ9eC3fKXJN5n1Vp4XFk-18">
          <mxGeometry width="30" height="34" as="geometry">
            <mxRectangle width="30" height="34" as="alternateBounds" />
          </mxGeometry>
        </mxCell>
        <mxCell id="yJ9eC3fKXJN5n1Vp4XFk-20" value="country" style="shape=partialRectangle;connectable=0;fillColor=none;top=0;left=0;bottom=0;right=0;align=left;spacingLeft=6;overflow=hidden;whiteSpace=wrap;html=1;fontSize=16;fontStyle=0" vertex="1" parent="yJ9eC3fKXJN5n1Vp4XFk-18">
          <mxGeometry x="30" width="250" height="34" as="geometry">
            <mxRectangle width="250" height="34" as="alternateBounds" />
          </mxGeometry>
        </mxCell>
        <mxCell id="yJ9eC3fKXJN5n1Vp4XFk-21" value="" style="shape=tableRow;horizontal=0;startSize=0;swimlaneHead=0;swimlaneBody=0;fillColor=none;collapsible=0;dropTarget=0;points=[[0,0.5],[1,0.5]];portConstraint=eastwest;top=0;left=0;right=0;bottom=0;fontSize=16;" vertex="1" parent="yJ9eC3fKXJN5n1Vp4XFk-2">
          <mxGeometry y="264" width="280" height="39" as="geometry" />
        </mxCell>
        <mxCell id="yJ9eC3fKXJN5n1Vp4XFk-22" value="" style="shape=partialRectangle;connectable=0;fillColor=none;top=0;left=0;bottom=0;right=0;editable=1;overflow=hidden;whiteSpace=wrap;html=1;fontSize=16;" vertex="1" parent="yJ9eC3fKXJN5n1Vp4XFk-21">
          <mxGeometry width="30" height="39" as="geometry">
            <mxRectangle width="30" height="39" as="alternateBounds" />
          </mxGeometry>
        </mxCell>
        <mxCell id="yJ9eC3fKXJN5n1Vp4XFk-23" value="marital_status" style="shape=partialRectangle;connectable=0;fillColor=none;top=0;left=0;bottom=0;right=0;align=left;spacingLeft=6;overflow=hidden;whiteSpace=wrap;html=1;fontSize=16;fontStyle=0" vertex="1" parent="yJ9eC3fKXJN5n1Vp4XFk-21">
          <mxGeometry x="30" width="250" height="39" as="geometry">
            <mxRectangle width="250" height="39" as="alternateBounds" />
          </mxGeometry>
        </mxCell>
        <mxCell id="yJ9eC3fKXJN5n1Vp4XFk-24" value="" style="shape=tableRow;horizontal=0;startSize=0;swimlaneHead=0;swimlaneBody=0;fillColor=none;collapsible=0;dropTarget=0;points=[[0,0.5],[1,0.5]];portConstraint=eastwest;top=0;left=0;right=0;bottom=0;fontSize=16;" vertex="1" parent="yJ9eC3fKXJN5n1Vp4XFk-2">
          <mxGeometry y="303" width="280" height="39" as="geometry" />
        </mxCell>
        <mxCell id="yJ9eC3fKXJN5n1Vp4XFk-25" value="" style="shape=partialRectangle;connectable=0;fillColor=none;top=0;left=0;bottom=0;right=0;editable=1;overflow=hidden;whiteSpace=wrap;html=1;fontSize=16;" vertex="1" parent="yJ9eC3fKXJN5n1Vp4XFk-24">
          <mxGeometry width="30" height="39" as="geometry">
            <mxRectangle width="30" height="39" as="alternateBounds" />
          </mxGeometry>
        </mxCell>
        <mxCell id="yJ9eC3fKXJN5n1Vp4XFk-26" value="gender" style="shape=partialRectangle;connectable=0;fillColor=none;top=0;left=0;bottom=0;right=0;align=left;spacingLeft=6;overflow=hidden;whiteSpace=wrap;html=1;fontSize=16;fontStyle=0" vertex="1" parent="yJ9eC3fKXJN5n1Vp4XFk-24">
          <mxGeometry x="30" width="250" height="39" as="geometry">
            <mxRectangle width="250" height="39" as="alternateBounds" />
          </mxGeometry>
        </mxCell>
        <mxCell id="yJ9eC3fKXJN5n1Vp4XFk-27" value="" style="shape=tableRow;horizontal=0;startSize=0;swimlaneHead=0;swimlaneBody=0;fillColor=none;collapsible=0;dropTarget=0;points=[[0,0.5],[1,0.5]];portConstraint=eastwest;top=0;left=0;right=0;bottom=0;fontSize=16;" vertex="1" parent="yJ9eC3fKXJN5n1Vp4XFk-2">
          <mxGeometry y="342" width="280" height="39" as="geometry" />
        </mxCell>
        <mxCell id="yJ9eC3fKXJN5n1Vp4XFk-28" value="" style="shape=partialRectangle;connectable=0;fillColor=none;top=0;left=0;bottom=0;right=0;editable=1;overflow=hidden;whiteSpace=wrap;html=1;fontSize=16;" vertex="1" parent="yJ9eC3fKXJN5n1Vp4XFk-27">
          <mxGeometry width="30" height="39" as="geometry">
            <mxRectangle width="30" height="39" as="alternateBounds" />
          </mxGeometry>
        </mxCell>
        <mxCell id="yJ9eC3fKXJN5n1Vp4XFk-29" value="birthdate" style="shape=partialRectangle;connectable=0;fillColor=none;top=0;left=0;bottom=0;right=0;align=left;spacingLeft=6;overflow=hidden;whiteSpace=wrap;html=1;fontSize=16;fontStyle=0" vertex="1" parent="yJ9eC3fKXJN5n1Vp4XFk-27">
          <mxGeometry x="30" width="250" height="39" as="geometry">
            <mxRectangle width="250" height="39" as="alternateBounds" />
          </mxGeometry>
        </mxCell>
        <mxCell id="yJ9eC3fKXJN5n1Vp4XFk-39" value="&lt;font style=&quot;color: rgb(0, 0, 0);&quot;&gt;gold.dim_products&lt;/font&gt;" style="shape=table;startSize=30;container=1;collapsible=1;childLayout=tableLayout;fixedRows=1;rowLines=0;fontStyle=1;align=center;resizeLast=1;html=1;rounded=1;fillColor=#fff2cc;strokeColor=#d6b656;fontSize=16;" vertex="1" parent="1">
          <mxGeometry x="760" y="350" width="280" height="455" as="geometry" />
        </mxCell>
        <mxCell id="yJ9eC3fKXJN5n1Vp4XFk-40" value="" style="shape=tableRow;horizontal=0;startSize=0;swimlaneHead=0;swimlaneBody=0;fillColor=none;collapsible=0;dropTarget=0;points=[[0,0.5],[1,0.5]];portConstraint=eastwest;top=0;left=0;right=0;bottom=1;fontSize=16;" vertex="1" parent="yJ9eC3fKXJN5n1Vp4XFk-39">
          <mxGeometry y="30" width="280" height="39" as="geometry" />
        </mxCell>
        <mxCell id="yJ9eC3fKXJN5n1Vp4XFk-41" value="PK" style="shape=partialRectangle;connectable=0;fillColor=none;top=0;left=0;bottom=0;right=0;fontStyle=1;overflow=hidden;whiteSpace=wrap;html=1;fontSize=16;" vertex="1" parent="yJ9eC3fKXJN5n1Vp4XFk-40">
          <mxGeometry width="30" height="39" as="geometry">
            <mxRectangle width="30" height="39" as="alternateBounds" />
          </mxGeometry>
        </mxCell>
        <mxCell id="yJ9eC3fKXJN5n1Vp4XFk-42" value="product_key" style="shape=partialRectangle;connectable=0;fillColor=none;top=0;left=0;bottom=0;right=0;align=left;spacingLeft=6;fontStyle=5;overflow=hidden;whiteSpace=wrap;html=1;fontSize=16;" vertex="1" parent="yJ9eC3fKXJN5n1Vp4XFk-40">
          <mxGeometry x="30" width="250" height="39" as="geometry">
            <mxRectangle width="250" height="39" as="alternateBounds" />
          </mxGeometry>
        </mxCell>
        <mxCell id="yJ9eC3fKXJN5n1Vp4XFk-43" value="" style="shape=tableRow;horizontal=0;startSize=0;swimlaneHead=0;swimlaneBody=0;fillColor=none;collapsible=0;dropTarget=0;points=[[0,0.5],[1,0.5]];portConstraint=eastwest;top=0;left=0;right=0;bottom=0;fontSize=16;" vertex="1" parent="yJ9eC3fKXJN5n1Vp4XFk-39">
          <mxGeometry y="69" width="280" height="39" as="geometry" />
        </mxCell>
        <mxCell id="yJ9eC3fKXJN5n1Vp4XFk-44" value="" style="shape=partialRectangle;connectable=0;fillColor=none;top=0;left=0;bottom=0;right=0;editable=1;overflow=hidden;whiteSpace=wrap;html=1;fontSize=16;" vertex="1" parent="yJ9eC3fKXJN5n1Vp4XFk-43">
          <mxGeometry width="30" height="39" as="geometry">
            <mxRectangle width="30" height="39" as="alternateBounds" />
          </mxGeometry>
        </mxCell>
        <mxCell id="yJ9eC3fKXJN5n1Vp4XFk-45" value="&lt;span style=&quot;&quot;&gt;product&lt;/span&gt;&lt;span style=&quot;&quot;&gt;_id&lt;/span&gt;" style="shape=partialRectangle;connectable=0;fillColor=none;top=0;left=0;bottom=0;right=0;align=left;spacingLeft=6;overflow=hidden;whiteSpace=wrap;html=1;fontSize=16;fontStyle=0" vertex="1" parent="yJ9eC3fKXJN5n1Vp4XFk-43">
          <mxGeometry x="30" width="250" height="39" as="geometry">
            <mxRectangle width="250" height="39" as="alternateBounds" />
          </mxGeometry>
        </mxCell>
        <mxCell id="yJ9eC3fKXJN5n1Vp4XFk-46" value="" style="shape=tableRow;horizontal=0;startSize=0;swimlaneHead=0;swimlaneBody=0;fillColor=none;collapsible=0;dropTarget=0;points=[[0,0.5],[1,0.5]];portConstraint=eastwest;top=0;left=0;right=0;bottom=0;fontSize=16;" vertex="1" parent="yJ9eC3fKXJN5n1Vp4XFk-39">
          <mxGeometry y="108" width="280" height="39" as="geometry" />
        </mxCell>
        <mxCell id="yJ9eC3fKXJN5n1Vp4XFk-47" value="" style="shape=partialRectangle;connectable=0;fillColor=none;top=0;left=0;bottom=0;right=0;editable=1;overflow=hidden;whiteSpace=wrap;html=1;fontSize=16;" vertex="1" parent="yJ9eC3fKXJN5n1Vp4XFk-46">
          <mxGeometry width="30" height="39" as="geometry">
            <mxRectangle width="30" height="39" as="alternateBounds" />
          </mxGeometry>
        </mxCell>
        <mxCell id="yJ9eC3fKXJN5n1Vp4XFk-48" value="product_number" style="shape=partialRectangle;connectable=0;fillColor=none;top=0;left=0;bottom=0;right=0;align=left;spacingLeft=6;overflow=hidden;whiteSpace=wrap;html=1;fontSize=16;fontStyle=0" vertex="1" parent="yJ9eC3fKXJN5n1Vp4XFk-46">
          <mxGeometry x="30" width="250" height="39" as="geometry">
            <mxRectangle width="250" height="39" as="alternateBounds" />
          </mxGeometry>
        </mxCell>
        <mxCell id="yJ9eC3fKXJN5n1Vp4XFk-49" value="" style="shape=tableRow;horizontal=0;startSize=0;swimlaneHead=0;swimlaneBody=0;fillColor=none;collapsible=0;dropTarget=0;points=[[0,0.5],[1,0.5]];portConstraint=eastwest;top=0;left=0;right=0;bottom=0;fontSize=16;" vertex="1" parent="yJ9eC3fKXJN5n1Vp4XFk-39">
          <mxGeometry y="147" width="280" height="39" as="geometry" />
        </mxCell>
        <mxCell id="yJ9eC3fKXJN5n1Vp4XFk-50" value="" style="shape=partialRectangle;connectable=0;fillColor=none;top=0;left=0;bottom=0;right=0;editable=1;overflow=hidden;whiteSpace=wrap;html=1;fontSize=16;" vertex="1" parent="yJ9eC3fKXJN5n1Vp4XFk-49">
          <mxGeometry width="30" height="39" as="geometry">
            <mxRectangle width="30" height="39" as="alternateBounds" />
          </mxGeometry>
        </mxCell>
        <mxCell id="yJ9eC3fKXJN5n1Vp4XFk-51" value="&lt;span style=&quot;&quot;&gt;product&lt;/span&gt;_name" style="shape=partialRectangle;connectable=0;fillColor=none;top=0;left=0;bottom=0;right=0;align=left;spacingLeft=6;overflow=hidden;whiteSpace=wrap;html=1;fontSize=16;fontStyle=0" vertex="1" parent="yJ9eC3fKXJN5n1Vp4XFk-49">
          <mxGeometry x="30" width="250" height="39" as="geometry">
            <mxRectangle width="250" height="39" as="alternateBounds" />
          </mxGeometry>
        </mxCell>
        <mxCell id="yJ9eC3fKXJN5n1Vp4XFk-52" value="" style="shape=tableRow;horizontal=0;startSize=0;swimlaneHead=0;swimlaneBody=0;fillColor=none;collapsible=0;dropTarget=0;points=[[0,0.5],[1,0.5]];portConstraint=eastwest;top=0;left=0;right=0;bottom=0;fontSize=16;" vertex="1" parent="yJ9eC3fKXJN5n1Vp4XFk-39">
          <mxGeometry y="186" width="280" height="39" as="geometry" />
        </mxCell>
        <mxCell id="yJ9eC3fKXJN5n1Vp4XFk-53" value="" style="shape=partialRectangle;connectable=0;fillColor=none;top=0;left=0;bottom=0;right=0;editable=1;overflow=hidden;whiteSpace=wrap;html=1;fontSize=16;" vertex="1" parent="yJ9eC3fKXJN5n1Vp4XFk-52">
          <mxGeometry width="30" height="39" as="geometry">
            <mxRectangle width="30" height="39" as="alternateBounds" />
          </mxGeometry>
        </mxCell>
        <mxCell id="yJ9eC3fKXJN5n1Vp4XFk-54" value="category_id" style="shape=partialRectangle;connectable=0;fillColor=none;top=0;left=0;bottom=0;right=0;align=left;spacingLeft=6;overflow=hidden;whiteSpace=wrap;html=1;fontSize=16;fontStyle=0" vertex="1" parent="yJ9eC3fKXJN5n1Vp4XFk-52">
          <mxGeometry x="30" width="250" height="39" as="geometry">
            <mxRectangle width="250" height="39" as="alternateBounds" />
          </mxGeometry>
        </mxCell>
        <mxCell id="yJ9eC3fKXJN5n1Vp4XFk-55" value="" style="shape=tableRow;horizontal=0;startSize=0;swimlaneHead=0;swimlaneBody=0;fillColor=none;collapsible=0;dropTarget=0;points=[[0,0.5],[1,0.5]];portConstraint=eastwest;top=0;left=0;right=0;bottom=0;fontSize=16;" vertex="1" parent="yJ9eC3fKXJN5n1Vp4XFk-39">
          <mxGeometry y="225" width="280" height="35" as="geometry" />
        </mxCell>
        <mxCell id="yJ9eC3fKXJN5n1Vp4XFk-56" value="" style="shape=partialRectangle;connectable=0;fillColor=none;top=0;left=0;bottom=0;right=0;editable=1;overflow=hidden;whiteSpace=wrap;html=1;fontSize=16;" vertex="1" parent="yJ9eC3fKXJN5n1Vp4XFk-55">
          <mxGeometry width="30" height="35" as="geometry">
            <mxRectangle width="30" height="35" as="alternateBounds" />
          </mxGeometry>
        </mxCell>
        <mxCell id="yJ9eC3fKXJN5n1Vp4XFk-57" value="category" style="shape=partialRectangle;connectable=0;fillColor=none;top=0;left=0;bottom=0;right=0;align=left;spacingLeft=6;overflow=hidden;whiteSpace=wrap;html=1;fontSize=16;fontStyle=0" vertex="1" parent="yJ9eC3fKXJN5n1Vp4XFk-55">
          <mxGeometry x="30" width="250" height="35" as="geometry">
            <mxRectangle width="250" height="35" as="alternateBounds" />
          </mxGeometry>
        </mxCell>
        <mxCell id="yJ9eC3fKXJN5n1Vp4XFk-58" value="" style="shape=tableRow;horizontal=0;startSize=0;swimlaneHead=0;swimlaneBody=0;fillColor=none;collapsible=0;dropTarget=0;points=[[0,0.5],[1,0.5]];portConstraint=eastwest;top=0;left=0;right=0;bottom=0;fontSize=16;" vertex="1" parent="yJ9eC3fKXJN5n1Vp4XFk-39">
          <mxGeometry y="260" width="280" height="39" as="geometry" />
        </mxCell>
        <mxCell id="yJ9eC3fKXJN5n1Vp4XFk-59" value="" style="shape=partialRectangle;connectable=0;fillColor=none;top=0;left=0;bottom=0;right=0;editable=1;overflow=hidden;whiteSpace=wrap;html=1;fontSize=16;" vertex="1" parent="yJ9eC3fKXJN5n1Vp4XFk-58">
          <mxGeometry width="30" height="39" as="geometry">
            <mxRectangle width="30" height="39" as="alternateBounds" />
          </mxGeometry>
        </mxCell>
        <mxCell id="yJ9eC3fKXJN5n1Vp4XFk-60" value="subcategory" style="shape=partialRectangle;connectable=0;fillColor=none;top=0;left=0;bottom=0;right=0;align=left;spacingLeft=6;overflow=hidden;whiteSpace=wrap;html=1;fontSize=16;fontStyle=0" vertex="1" parent="yJ9eC3fKXJN5n1Vp4XFk-58">
          <mxGeometry x="30" width="250" height="39" as="geometry">
            <mxRectangle width="250" height="39" as="alternateBounds" />
          </mxGeometry>
        </mxCell>
        <mxCell id="yJ9eC3fKXJN5n1Vp4XFk-61" value="" style="shape=tableRow;horizontal=0;startSize=0;swimlaneHead=0;swimlaneBody=0;fillColor=none;collapsible=0;dropTarget=0;points=[[0,0.5],[1,0.5]];portConstraint=eastwest;top=0;left=0;right=0;bottom=0;fontSize=16;" vertex="1" parent="yJ9eC3fKXJN5n1Vp4XFk-39">
          <mxGeometry y="299" width="280" height="39" as="geometry" />
        </mxCell>
        <mxCell id="yJ9eC3fKXJN5n1Vp4XFk-62" value="" style="shape=partialRectangle;connectable=0;fillColor=none;top=0;left=0;bottom=0;right=0;editable=1;overflow=hidden;whiteSpace=wrap;html=1;fontSize=16;" vertex="1" parent="yJ9eC3fKXJN5n1Vp4XFk-61">
          <mxGeometry width="30" height="39" as="geometry">
            <mxRectangle width="30" height="39" as="alternateBounds" />
          </mxGeometry>
        </mxCell>
        <mxCell id="yJ9eC3fKXJN5n1Vp4XFk-63" value="maintenance" style="shape=partialRectangle;connectable=0;fillColor=none;top=0;left=0;bottom=0;right=0;align=left;spacingLeft=6;overflow=hidden;whiteSpace=wrap;html=1;fontSize=16;fontStyle=0" vertex="1" parent="yJ9eC3fKXJN5n1Vp4XFk-61">
          <mxGeometry x="30" width="250" height="39" as="geometry">
            <mxRectangle width="250" height="39" as="alternateBounds" />
          </mxGeometry>
        </mxCell>
        <mxCell id="yJ9eC3fKXJN5n1Vp4XFk-64" value="" style="shape=tableRow;horizontal=0;startSize=0;swimlaneHead=0;swimlaneBody=0;fillColor=none;collapsible=0;dropTarget=0;points=[[0,0.5],[1,0.5]];portConstraint=eastwest;top=0;left=0;right=0;bottom=0;fontSize=16;" vertex="1" parent="yJ9eC3fKXJN5n1Vp4XFk-39">
          <mxGeometry y="338" width="280" height="39" as="geometry" />
        </mxCell>
        <mxCell id="yJ9eC3fKXJN5n1Vp4XFk-65" value="" style="shape=partialRectangle;connectable=0;fillColor=none;top=0;left=0;bottom=0;right=0;editable=1;overflow=hidden;whiteSpace=wrap;html=1;fontSize=16;" vertex="1" parent="yJ9eC3fKXJN5n1Vp4XFk-64">
          <mxGeometry width="30" height="39" as="geometry">
            <mxRectangle width="30" height="39" as="alternateBounds" />
          </mxGeometry>
        </mxCell>
        <mxCell id="yJ9eC3fKXJN5n1Vp4XFk-66" value="cost" style="shape=partialRectangle;connectable=0;fillColor=none;top=0;left=0;bottom=0;right=0;align=left;spacingLeft=6;overflow=hidden;whiteSpace=wrap;html=1;fontSize=16;fontStyle=0" vertex="1" parent="yJ9eC3fKXJN5n1Vp4XFk-64">
          <mxGeometry x="30" width="250" height="39" as="geometry">
            <mxRectangle width="250" height="39" as="alternateBounds" />
          </mxGeometry>
        </mxCell>
        <mxCell id="yJ9eC3fKXJN5n1Vp4XFk-67" value="" style="shape=tableRow;horizontal=0;startSize=0;swimlaneHead=0;swimlaneBody=0;fillColor=none;collapsible=0;dropTarget=0;points=[[0,0.5],[1,0.5]];portConstraint=eastwest;top=0;left=0;right=0;bottom=0;fontSize=16;" vertex="1" parent="yJ9eC3fKXJN5n1Vp4XFk-39">
          <mxGeometry y="377" width="280" height="39" as="geometry" />
        </mxCell>
        <mxCell id="yJ9eC3fKXJN5n1Vp4XFk-68" value="" style="shape=partialRectangle;connectable=0;fillColor=none;top=0;left=0;bottom=0;right=0;editable=1;overflow=hidden;whiteSpace=wrap;html=1;fontSize=16;" vertex="1" parent="yJ9eC3fKXJN5n1Vp4XFk-67">
          <mxGeometry width="30" height="39" as="geometry">
            <mxRectangle width="30" height="39" as="alternateBounds" />
          </mxGeometry>
        </mxCell>
        <mxCell id="yJ9eC3fKXJN5n1Vp4XFk-69" value="product_line" style="shape=partialRectangle;connectable=0;fillColor=none;top=0;left=0;bottom=0;right=0;align=left;spacingLeft=6;overflow=hidden;whiteSpace=wrap;html=1;fontSize=16;fontStyle=0" vertex="1" parent="yJ9eC3fKXJN5n1Vp4XFk-67">
          <mxGeometry x="30" width="250" height="39" as="geometry">
            <mxRectangle width="250" height="39" as="alternateBounds" />
          </mxGeometry>
        </mxCell>
        <mxCell id="yJ9eC3fKXJN5n1Vp4XFk-70" value="" style="shape=tableRow;horizontal=0;startSize=0;swimlaneHead=0;swimlaneBody=0;fillColor=none;collapsible=0;dropTarget=0;points=[[0,0.5],[1,0.5]];portConstraint=eastwest;top=0;left=0;right=0;bottom=0;fontSize=16;" vertex="1" parent="yJ9eC3fKXJN5n1Vp4XFk-39">
          <mxGeometry y="416" width="280" height="39" as="geometry" />
        </mxCell>
        <mxCell id="yJ9eC3fKXJN5n1Vp4XFk-71" value="" style="shape=partialRectangle;connectable=0;fillColor=none;top=0;left=0;bottom=0;right=0;editable=1;overflow=hidden;whiteSpace=wrap;html=1;fontSize=16;" vertex="1" parent="yJ9eC3fKXJN5n1Vp4XFk-70">
          <mxGeometry width="30" height="39" as="geometry">
            <mxRectangle width="30" height="39" as="alternateBounds" />
          </mxGeometry>
        </mxCell>
        <mxCell id="yJ9eC3fKXJN5n1Vp4XFk-72" value="start_date" style="shape=partialRectangle;connectable=0;fillColor=none;top=0;left=0;bottom=0;right=0;align=left;spacingLeft=6;overflow=hidden;whiteSpace=wrap;html=1;fontSize=16;fontStyle=0" vertex="1" parent="yJ9eC3fKXJN5n1Vp4XFk-70">
          <mxGeometry x="30" width="250" height="39" as="geometry">
            <mxRectangle width="250" height="39" as="alternateBounds" />
          </mxGeometry>
        </mxCell>
        <mxCell id="yJ9eC3fKXJN5n1Vp4XFk-73" value="&lt;font style=&quot;color: rgb(0, 0, 0);&quot;&gt;gold.fact_sales&lt;/font&gt;" style="shape=table;startSize=30;container=1;collapsible=1;childLayout=tableLayout;fixedRows=1;rowLines=0;fontStyle=1;align=center;resizeLast=1;html=1;rounded=1;fillColor=#dae8fc;strokeColor=#6c8ebf;fontSize=16;" vertex="1" parent="1">
          <mxGeometry x="360" y="350" width="280" height="377" as="geometry" />
        </mxCell>
        <mxCell id="yJ9eC3fKXJN5n1Vp4XFk-77" value="" style="shape=tableRow;horizontal=0;startSize=0;swimlaneHead=0;swimlaneBody=0;fillColor=none;collapsible=0;dropTarget=0;points=[[0,0.5],[1,0.5]];portConstraint=eastwest;top=0;left=0;right=0;bottom=0;fontSize=16;" vertex="1" parent="yJ9eC3fKXJN5n1Vp4XFk-73">
          <mxGeometry y="30" width="280" height="39" as="geometry" />
        </mxCell>
        <mxCell id="yJ9eC3fKXJN5n1Vp4XFk-78" value="" style="shape=partialRectangle;connectable=0;fillColor=none;top=0;left=0;bottom=0;right=0;editable=1;overflow=hidden;whiteSpace=wrap;html=1;fontSize=16;" vertex="1" parent="yJ9eC3fKXJN5n1Vp4XFk-77">
          <mxGeometry width="40" height="39" as="geometry">
            <mxRectangle width="40" height="39" as="alternateBounds" />
          </mxGeometry>
        </mxCell>
        <mxCell id="yJ9eC3fKXJN5n1Vp4XFk-79" value="order_number" style="shape=partialRectangle;connectable=0;fillColor=none;top=0;left=0;bottom=0;right=0;align=left;spacingLeft=6;overflow=hidden;whiteSpace=wrap;html=1;fontSize=16;fontStyle=0" vertex="1" parent="yJ9eC3fKXJN5n1Vp4XFk-77">
          <mxGeometry x="40" width="240" height="39" as="geometry">
            <mxRectangle width="240" height="39" as="alternateBounds" />
          </mxGeometry>
        </mxCell>
        <mxCell id="yJ9eC3fKXJN5n1Vp4XFk-80" value="" style="shape=tableRow;horizontal=0;startSize=0;swimlaneHead=0;swimlaneBody=0;fillColor=none;collapsible=0;dropTarget=0;points=[[0,0.5],[1,0.5]];portConstraint=eastwest;top=0;left=0;right=0;bottom=0;fontSize=16;" vertex="1" parent="yJ9eC3fKXJN5n1Vp4XFk-73">
          <mxGeometry y="69" width="280" height="39" as="geometry" />
        </mxCell>
        <mxCell id="yJ9eC3fKXJN5n1Vp4XFk-81" value="&lt;b&gt;FK1&lt;/b&gt;" style="shape=partialRectangle;connectable=0;fillColor=none;top=0;left=0;bottom=0;right=0;editable=1;overflow=hidden;whiteSpace=wrap;html=1;fontSize=16;" vertex="1" parent="yJ9eC3fKXJN5n1Vp4XFk-80">
          <mxGeometry width="40" height="39" as="geometry">
            <mxRectangle width="40" height="39" as="alternateBounds" />
          </mxGeometry>
        </mxCell>
        <mxCell id="yJ9eC3fKXJN5n1Vp4XFk-82" value="product_key" style="shape=partialRectangle;connectable=0;fillColor=none;top=0;left=0;bottom=0;right=0;align=left;spacingLeft=6;overflow=hidden;whiteSpace=wrap;html=1;fontSize=16;fontStyle=0" vertex="1" parent="yJ9eC3fKXJN5n1Vp4XFk-80">
          <mxGeometry x="40" width="240" height="39" as="geometry">
            <mxRectangle width="240" height="39" as="alternateBounds" />
          </mxGeometry>
        </mxCell>
        <mxCell id="yJ9eC3fKXJN5n1Vp4XFk-83" value="" style="shape=tableRow;horizontal=0;startSize=0;swimlaneHead=0;swimlaneBody=0;fillColor=none;collapsible=0;dropTarget=0;points=[[0,0.5],[1,0.5]];portConstraint=eastwest;top=0;left=0;right=0;bottom=0;fontSize=16;" vertex="1" parent="yJ9eC3fKXJN5n1Vp4XFk-73">
          <mxGeometry y="108" width="280" height="39" as="geometry" />
        </mxCell>
        <mxCell id="yJ9eC3fKXJN5n1Vp4XFk-84" value="&lt;b&gt;FK2&lt;/b&gt;" style="shape=partialRectangle;connectable=0;fillColor=none;top=0;left=0;bottom=0;right=0;editable=1;overflow=hidden;whiteSpace=wrap;html=1;fontSize=16;" vertex="1" parent="yJ9eC3fKXJN5n1Vp4XFk-83">
          <mxGeometry width="40" height="39" as="geometry">
            <mxRectangle width="40" height="39" as="alternateBounds" />
          </mxGeometry>
        </mxCell>
        <mxCell id="yJ9eC3fKXJN5n1Vp4XFk-85" value="customer_key" style="shape=partialRectangle;connectable=0;fillColor=none;top=0;left=0;bottom=0;right=0;align=left;spacingLeft=6;overflow=hidden;whiteSpace=wrap;html=1;fontSize=16;fontStyle=0" vertex="1" parent="yJ9eC3fKXJN5n1Vp4XFk-83">
          <mxGeometry x="40" width="240" height="39" as="geometry">
            <mxRectangle width="240" height="39" as="alternateBounds" />
          </mxGeometry>
        </mxCell>
        <mxCell id="yJ9eC3fKXJN5n1Vp4XFk-86" value="" style="shape=tableRow;horizontal=0;startSize=0;swimlaneHead=0;swimlaneBody=0;fillColor=none;collapsible=0;dropTarget=0;points=[[0,0.5],[1,0.5]];portConstraint=eastwest;top=0;left=0;right=0;bottom=0;fontSize=16;" vertex="1" parent="yJ9eC3fKXJN5n1Vp4XFk-73">
          <mxGeometry y="147" width="280" height="39" as="geometry" />
        </mxCell>
        <mxCell id="yJ9eC3fKXJN5n1Vp4XFk-87" value="" style="shape=partialRectangle;connectable=0;fillColor=none;top=0;left=0;bottom=0;right=0;editable=1;overflow=hidden;whiteSpace=wrap;html=1;fontSize=16;" vertex="1" parent="yJ9eC3fKXJN5n1Vp4XFk-86">
          <mxGeometry width="40" height="39" as="geometry">
            <mxRectangle width="40" height="39" as="alternateBounds" />
          </mxGeometry>
        </mxCell>
        <mxCell id="yJ9eC3fKXJN5n1Vp4XFk-88" value="order_date" style="shape=partialRectangle;connectable=0;fillColor=none;top=0;left=0;bottom=0;right=0;align=left;spacingLeft=6;overflow=hidden;whiteSpace=wrap;html=1;fontSize=16;fontStyle=0" vertex="1" parent="yJ9eC3fKXJN5n1Vp4XFk-86">
          <mxGeometry x="40" width="240" height="39" as="geometry">
            <mxRectangle width="240" height="39" as="alternateBounds" />
          </mxGeometry>
        </mxCell>
        <mxCell id="yJ9eC3fKXJN5n1Vp4XFk-89" value="" style="shape=tableRow;horizontal=0;startSize=0;swimlaneHead=0;swimlaneBody=0;fillColor=none;collapsible=0;dropTarget=0;points=[[0,0.5],[1,0.5]];portConstraint=eastwest;top=0;left=0;right=0;bottom=0;fontSize=16;" vertex="1" parent="yJ9eC3fKXJN5n1Vp4XFk-73">
          <mxGeometry y="186" width="280" height="35" as="geometry" />
        </mxCell>
        <mxCell id="yJ9eC3fKXJN5n1Vp4XFk-90" value="" style="shape=partialRectangle;connectable=0;fillColor=none;top=0;left=0;bottom=0;right=0;editable=1;overflow=hidden;whiteSpace=wrap;html=1;fontSize=16;" vertex="1" parent="yJ9eC3fKXJN5n1Vp4XFk-89">
          <mxGeometry width="40" height="35" as="geometry">
            <mxRectangle width="40" height="35" as="alternateBounds" />
          </mxGeometry>
        </mxCell>
        <mxCell id="yJ9eC3fKXJN5n1Vp4XFk-91" value="shipping_date" style="shape=partialRectangle;connectable=0;fillColor=none;top=0;left=0;bottom=0;right=0;align=left;spacingLeft=6;overflow=hidden;whiteSpace=wrap;html=1;fontSize=16;fontStyle=0" vertex="1" parent="yJ9eC3fKXJN5n1Vp4XFk-89">
          <mxGeometry x="40" width="240" height="35" as="geometry">
            <mxRectangle width="240" height="35" as="alternateBounds" />
          </mxGeometry>
        </mxCell>
        <mxCell id="yJ9eC3fKXJN5n1Vp4XFk-92" value="" style="shape=tableRow;horizontal=0;startSize=0;swimlaneHead=0;swimlaneBody=0;fillColor=none;collapsible=0;dropTarget=0;points=[[0,0.5],[1,0.5]];portConstraint=eastwest;top=0;left=0;right=0;bottom=0;fontSize=16;" vertex="1" parent="yJ9eC3fKXJN5n1Vp4XFk-73">
          <mxGeometry y="221" width="280" height="39" as="geometry" />
        </mxCell>
        <mxCell id="yJ9eC3fKXJN5n1Vp4XFk-93" value="" style="shape=partialRectangle;connectable=0;fillColor=none;top=0;left=0;bottom=0;right=0;editable=1;overflow=hidden;whiteSpace=wrap;html=1;fontSize=16;" vertex="1" parent="yJ9eC3fKXJN5n1Vp4XFk-92">
          <mxGeometry width="40" height="39" as="geometry">
            <mxRectangle width="40" height="39" as="alternateBounds" />
          </mxGeometry>
        </mxCell>
        <mxCell id="yJ9eC3fKXJN5n1Vp4XFk-94" value="due_date" style="shape=partialRectangle;connectable=0;fillColor=none;top=0;left=0;bottom=0;right=0;align=left;spacingLeft=6;overflow=hidden;whiteSpace=wrap;html=1;fontSize=16;fontStyle=0" vertex="1" parent="yJ9eC3fKXJN5n1Vp4XFk-92">
          <mxGeometry x="40" width="240" height="39" as="geometry">
            <mxRectangle width="240" height="39" as="alternateBounds" />
          </mxGeometry>
        </mxCell>
        <mxCell id="yJ9eC3fKXJN5n1Vp4XFk-95" value="" style="shape=tableRow;horizontal=0;startSize=0;swimlaneHead=0;swimlaneBody=0;fillColor=none;collapsible=0;dropTarget=0;points=[[0,0.5],[1,0.5]];portConstraint=eastwest;top=0;left=0;right=0;bottom=0;fontSize=16;" vertex="1" parent="yJ9eC3fKXJN5n1Vp4XFk-73">
          <mxGeometry y="260" width="280" height="39" as="geometry" />
        </mxCell>
        <mxCell id="yJ9eC3fKXJN5n1Vp4XFk-96" value="" style="shape=partialRectangle;connectable=0;fillColor=none;top=0;left=0;bottom=0;right=0;editable=1;overflow=hidden;whiteSpace=wrap;html=1;fontSize=16;" vertex="1" parent="yJ9eC3fKXJN5n1Vp4XFk-95">
          <mxGeometry width="40" height="39" as="geometry">
            <mxRectangle width="40" height="39" as="alternateBounds" />
          </mxGeometry>
        </mxCell>
        <mxCell id="yJ9eC3fKXJN5n1Vp4XFk-97" value="sales_amount" style="shape=partialRectangle;connectable=0;fillColor=none;top=0;left=0;bottom=0;right=0;align=left;spacingLeft=6;overflow=hidden;whiteSpace=wrap;html=1;fontSize=16;fontStyle=0" vertex="1" parent="yJ9eC3fKXJN5n1Vp4XFk-95">
          <mxGeometry x="40" width="240" height="39" as="geometry">
            <mxRectangle width="240" height="39" as="alternateBounds" />
          </mxGeometry>
        </mxCell>
        <mxCell id="yJ9eC3fKXJN5n1Vp4XFk-98" value="" style="shape=tableRow;horizontal=0;startSize=0;swimlaneHead=0;swimlaneBody=0;fillColor=none;collapsible=0;dropTarget=0;points=[[0,0.5],[1,0.5]];portConstraint=eastwest;top=0;left=0;right=0;bottom=0;fontSize=16;" vertex="1" parent="yJ9eC3fKXJN5n1Vp4XFk-73">
          <mxGeometry y="299" width="280" height="39" as="geometry" />
        </mxCell>
        <mxCell id="yJ9eC3fKXJN5n1Vp4XFk-99" value="" style="shape=partialRectangle;connectable=0;fillColor=none;top=0;left=0;bottom=0;right=0;editable=1;overflow=hidden;whiteSpace=wrap;html=1;fontSize=16;" vertex="1" parent="yJ9eC3fKXJN5n1Vp4XFk-98">
          <mxGeometry width="40" height="39" as="geometry">
            <mxRectangle width="40" height="39" as="alternateBounds" />
          </mxGeometry>
        </mxCell>
        <mxCell id="yJ9eC3fKXJN5n1Vp4XFk-100" value="quantity" style="shape=partialRectangle;connectable=0;fillColor=none;top=0;left=0;bottom=0;right=0;align=left;spacingLeft=6;overflow=hidden;whiteSpace=wrap;html=1;fontSize=16;fontStyle=0" vertex="1" parent="yJ9eC3fKXJN5n1Vp4XFk-98">
          <mxGeometry x="40" width="240" height="39" as="geometry">
            <mxRectangle width="240" height="39" as="alternateBounds" />
          </mxGeometry>
        </mxCell>
        <mxCell id="yJ9eC3fKXJN5n1Vp4XFk-101" value="" style="shape=tableRow;horizontal=0;startSize=0;swimlaneHead=0;swimlaneBody=0;fillColor=none;collapsible=0;dropTarget=0;points=[[0,0.5],[1,0.5]];portConstraint=eastwest;top=0;left=0;right=0;bottom=0;fontSize=16;" vertex="1" parent="yJ9eC3fKXJN5n1Vp4XFk-73">
          <mxGeometry y="338" width="280" height="39" as="geometry" />
        </mxCell>
        <mxCell id="yJ9eC3fKXJN5n1Vp4XFk-102" value="" style="shape=partialRectangle;connectable=0;fillColor=none;top=0;left=0;bottom=0;right=0;editable=1;overflow=hidden;whiteSpace=wrap;html=1;fontSize=16;" vertex="1" parent="yJ9eC3fKXJN5n1Vp4XFk-101">
          <mxGeometry width="40" height="39" as="geometry">
            <mxRectangle width="40" height="39" as="alternateBounds" />
          </mxGeometry>
        </mxCell>
        <mxCell id="yJ9eC3fKXJN5n1Vp4XFk-103" value="price" style="shape=partialRectangle;connectable=0;fillColor=none;top=0;left=0;bottom=0;right=0;align=left;spacingLeft=6;overflow=hidden;whiteSpace=wrap;html=1;fontSize=16;fontStyle=0" vertex="1" parent="yJ9eC3fKXJN5n1Vp4XFk-101">
          <mxGeometry x="40" width="240" height="39" as="geometry">
            <mxRectangle width="240" height="39" as="alternateBounds" />
          </mxGeometry>
        </mxCell>
        <mxCell id="yJ9eC3fKXJN5n1Vp4XFk-107" value="" style="edgeStyle=entityRelationEdgeStyle;fontSize=12;html=1;endArrow=ERzeroToMany;startArrow=ERmandOne;rounded=0;exitX=1;exitY=0.5;exitDx=0;exitDy=0;entryX=0;entryY=0.5;entryDx=0;entryDy=0;" edge="1" parent="1" source="yJ9eC3fKXJN5n1Vp4XFk-3" target="yJ9eC3fKXJN5n1Vp4XFk-83">
          <mxGeometry width="100" height="100" relative="1" as="geometry">
            <mxPoint x="210" y="580" as="sourcePoint" />
            <mxPoint x="310" y="480" as="targetPoint" />
          </mxGeometry>
        </mxCell>
        <mxCell id="yJ9eC3fKXJN5n1Vp4XFk-108" value="" style="edgeStyle=entityRelationEdgeStyle;fontSize=12;html=1;endArrow=ERzeroToMany;startArrow=ERmandOne;rounded=0;entryX=1;entryY=0.5;entryDx=0;entryDy=0;exitX=0;exitY=0.5;exitDx=0;exitDy=0;" edge="1" parent="1" source="yJ9eC3fKXJN5n1Vp4XFk-40" target="yJ9eC3fKXJN5n1Vp4XFk-80">
          <mxGeometry width="100" height="100" relative="1" as="geometry">
            <mxPoint x="680" y="590.5" as="sourcePoint" />
            <mxPoint x="780" y="490.5" as="targetPoint" />
          </mxGeometry>
        </mxCell>
      </root>
    </mxGraphModel>
  </diagram>
</mxfile>
